<?xml version="1.0" encoding="UTF-8"?>
<svg id="Layer_1" data-name="Layer 1" xmlns="http://www.w3.org/2000/svg" viewBox="0 0 711 698">
  <defs>
    <style>
      .cls-1 {
        fill: #fff;
      }
    </style>
  </defs>
  <path class="cls-1" d="M710.5,360c-2.2,4.62-1.38,9.67-1.78,14.48-.81,9.77-.83,19.6-1.21,29.41-.08,1.99-.16,4.01-.55,5.96-1.03,5.16-4.09,8.26-9.3,8.06-33.14-1.3-63.11-9.92-84.26-37.88-8.6-11.37-13.99-24.51-19.83-37.39-5.21-11.5-9.7-23.47-19.66-32.04-1.25-1.08-1.86-3.61-4.28-2.54-2.56,1.13-2.13,3.45-1.87,5.63,2.15,17.66,4.66,35.28,5.81,53.04,.51,7.92-3.27,12.12-11.26,13.48-15.92,2.71-31.98,4.2-48.06,5.52-8.12,.66-13.89-4.37-14.83-12.5-3.92-33.93-4.85-68.02-6.14-102.11-1.01-26.92-2.3-53.83-7.22-80.42-1.02-5.5-1.48-11.21-.85-16.86,1.48-13.35,7.92-21.14,21.08-23.7,40.58-7.9,80.95-8.83,120.7,4.89,5.49,1.9,11.17,3.26,16.38,5.95,28.14,14.54,34.68,51.75,13.56,77-6.89,8.24-15.32,14.79-23.74,21.29-3.15,2.43-3.05,4.27-1.36,7.39,6.7,12.44,13.64,24.79,19.6,37.59,6.2,13.32,16.63,19.8,30.58,21.73,5.27,.73,10.56,1.5,15.86,1.86,5.14,.35,9.62,1.63,12.63,6.16v25.99Zm-142.52-160.87c-1.53,.46-4.74-1.43-4.15,2.66,1.26,8.72,2.63,17.43,3.91,26.15,.28,1.89,.94,2.45,2.49,1.04,4.67-4.25,9.87-7.91,14.15-12.61,1.92-2.11,2.03-4.34,1.11-6.91-2.22-6.2-8.58-10.05-17.5-10.32Z"/>
  <path class="cls-1" d="M419.57,.1c.8,4.2,3.69,7.3,5.75,10.83,5.44,9.32,11.01,18.56,16.43,27.89,1.35,2.33,2.88,3.61,5.79,3.77,14.75,.82,29.49,1.88,44.49,2.87-.08,2.74-2.14,4.12-3.55,5.78-8.07,9.47-16.11,18.97-24.41,28.23-2.55,2.85-2.93,5.47-1.98,9.03,3.36,12.51,6.46,25.09,9.58,37.66,.3,1.21,1.56,2.7,.35,3.7-1.23,1.03-2.82,.08-4.17-.5-12.33-5.26-24.74-10.35-36.93-15.92-2.86-1.3-4.54-.64-6.71,.77-11.51,7.5-23.07,14.94-34.6,22.4-.94,.61-1.78,1.89-3.02,1.17-1.33-.78-.32-2.13-.24-3.19,1.11-13.58,2.08-27.18,3.57-40.72,.39-3.54-.63-5.51-3.16-7.57-10.28-8.39-20.45-16.9-30.62-25.42-.93-.78-2.82-1.08-2.32-2.81,.44-1.51,2.19-1.37,3.39-1.65,12.43-2.91,24.87-5.77,37.34-8.53,3.99-.88,6.56-2.64,8.08-6.83,4.54-12.48,9.63-24.76,14.48-37.12,.48-1.22,1.05-2.48,.46-3.85h2Z"/>
  <path class="cls-1" d="M381.53,361.99c-3.14,.3-6.36,.28-9.42,.97-5.26,1.19-5.76,5.97-6.46,10.11-1.27,7.53-1.8,15.2-3.19,22.71-2.39,12.93-6.84,16.37-20.08,16.38-16.34,0-32.41-2.98-48.63-4.34-6.8-.57-10.94-7.57-9.59-14.99,4.77-26.14,9.52-52.29,14.46-78.41,6.23-32.98,12.74-65.88,22.68-98.04,3.39-10.98,10.83-16.63,20.31-20.99,24.9-11.47,49.82-22.91,75.6-32.27,7.2-2.61,14.74-4.06,22.53-2.1,11.69,2.94,16.95,11.49,19.73,22.24,2.63,10.2,3.13,20.71,3.91,31.12,2.63,35.14,4.33,70.35,6.41,105.53,1.34,22.69,2.54,45.46,9.04,67.54,2.15,7.3-1.08,11.96-8.71,13.29-7.68,1.34-15.45,2.4-23.22,2.99-11.62,.87-23.09,2.64-34.51,4.87-14.14,2.76-18.4-1.17-15.98-15.22,1.25-7.28,1.02-14.53,.68-21.86-.26-5.58-2.96-8.01-8.12-8.78-2.48-.37-4.92-.82-7.44-.73Zm20.18-70.41c.17-4.53-1.52-10.86-1.94-17.3-.31-4.67-2.37-7.66-6.69-8.7-3.41-.82-8.5,3.81-9.34,8.19-2.17,11.4-4.02,22.86-6.44,34.21-.87,4.09,.33,5.33,4.04,4.9,18.62-2.17,20.34-3.99,20.38-21.3Z"/>
  <path class="cls-1" d="M462.84,460.42c0,5.83,0,11.66,0,17.49,0,9.35-3.27,13.36-12.49,13.84-15.12,.79-30.06,3.27-45.14,4.2-3.26,.2-4.81,.99-4.6,4.62,.46,7.8-.19,15.61,.57,23.44,.4,4.11,2.03,4.64,5.33,3.84,9.35-2.27,18.68-4.61,28.06-6.77,4.19-.96,8.44-1.99,12.71-2.25,9.44-.57,13.44,3.09,14.13,12.57,.7,9.49-.11,18.97-.85,28.41-.66,8.44-1.75,16.86-2.87,25.25-1.59,11.94-8.81,18.1-20.98,18.11-12.16,0-24.32,.05-36.47-.11-3.37-.05-5.01,.89-4.6,4.5,.22,1.97,.04,3.99,.04,5.99,0,10.63-.02,10.51,10.42,8.09,16.31-3.79,32.64-7.51,49.01-11.06,10.83-2.35,17.65,2.33,18.08,13.26,.64,16.29,1.61,32.53,2.98,48.77,.76,8.98-4.1,13.66-14.23,15.08-18.24,2.56-36.41,5.68-54.72,7.58-22.2,2.3-44.45,2.66-66.31-3.27-7.74-2.1-11.19-6.23-11.21-14.27-.04-17.31,1.93-34.52,3.11-51.77,1.27-18.59,2.93-37.16,3.57-55.78,1.16-33.96,.32-67.94,.51-101.91,.04-6.63-.07-13.3,2.33-19.7,2.64-7.02,7.66-11.18,14.85-12.59,27.03-5.29,54.08-10.47,81.13-15.65,4.24-.81,8.5-1.64,12.79-2.1,8.77-.93,12.61,2.22,13.39,11.25,.68,7.79,.93,15.61,1.31,23.42,.12,2.49,.02,5,.02,7.49,.04,0,.09,0,.13,0Z"/>
  <path class="cls-1" d="M523.24,418.01c21.55-.53,42.87,1.9,63.77,6.86,31.44,7.45,53.4,27.43,70.46,54.19,17.75,27.84,12.12,54.9-.74,82.09-6.31,13.33-16.54,23.59-27.27,33.43-27.95,25.61-59.48,44.62-96.66,53.64-8.23,2-16.25,4.86-24.6,6.45-11.24,2.15-13.82,.18-17.04-10.86-3.36-11.53-4.06-23.23-3.86-35.07,.14-8.19,2.56-11.04,10.4-12.73,8.51-1.84,9.91-3.46,9.73-12.03-.58-26.66,1.16-53.24,2.78-79.82,.12-1.99,.18-4,.07-5.99-.49-8.2-3.74-11.2-12-11.19-2,0-4,.15-5.99,.04-6.06-.34-10.62-3.69-10.83-9.67-.51-14.28-1.29-28.67,1.01-42.83,1.73-10.64,8.87-15.73,21.33-16.45,6.47-.37,12.98-.07,19.47-.07Zm44.28,106.44s-.09,0-.14,0c.39,6.79,.89,13.57,1.12,20.36,.13,3.71,1.48,3.79,4.2,2.06,5.73-3.63,10.23-8.36,13.33-14.41,7.79-15.2,1-27.68-15.96-29.54-2.73-.3-3.61,.51-3.46,3.14,.36,6.12,.61,12.25,.9,18.38Z"/>
  <path class="cls-1" d="M277.48,618.86c10.2,.34,22.55-.76,34.82,.9,7.71,1.05,10.38,4.28,10.16,12.06-.18,6.52-1.83,12.84-3.09,19.19-1.26,6.37-2.3,12.74-2.79,19.23-.9,11.93-7.72,17.07-19.56,15.46-44.55-6.05-87.51-18.18-129.54-33.84-4.99-1.86-9.91-3.91-14.36-6.9-9.02-6.06-10.73-12.56-5.91-22.21,3.16-6.32,7.73-11.63,12.06-17.11,17.16-21.7,31.33-45.02,39.84-71.57,4.71-14.7,6.39-29.89,8.22-45.08,2.16-17.86,6.39-35.33,9.8-52.96,.63-3.26,1.19-6.57,2.24-9.7,2.26-6.75,7.33-10.05,14.29-8.68,17.45,3.44,34.83,7.21,52.23,10.94,8.13,1.74,16.16,3.95,24.32,5.48,8.87,1.67,13.55,7.09,15.41,15.51,2.57,11.63,2.54,23.48,2.62,35.27,.05,8.26-3.15,10.8-12.19,12.07-10.28,1.45-20.61,1.07-30.93,.99-4.16-.03-8.33-.15-12.49-.16-6.71,0-7.43,.41-7.81,7.26-.37,6.64,.01,13.32-.15,19.98-.09,3.61,1.51,3.93,4.64,3.63,11.26-1.07,22.53-2.1,33.83-2.6,9.23-.41,14.01,3.96,13.92,13.03-.12,12.63-.49,25.31-2.74,37.8-2.09,11.65-7.2,16.16-19.32,17.01-12.12,.85-24.26,1.33-36.39,1.96-13.54,.69-19.71,7.11-19.93,20.5-.05,3.11,1.98,2.5,3.69,2.51,11,.03,21.99,.02,35.1,.02Z"/>
  <path class="cls-1" d="M185.84,169.48c0,9.83-.05,19.65,.02,29.48,.03,4.01-.47,5.76-5.27,3.61-11.2-5.02-22.61-9.81-35.28-9.43-12,.36-21.79,5.51-29.26,14.76-5.98,7.4-4.95,15.92,2.45,22.03,6.74,5.56,14.77,8.95,22.82,11.96,17.84,6.67,28.57,19.23,31.1,37.94,2.44,18.04-3.12,33.78-17.66,45.22-17.35,13.66-37.15,21.01-59.51,20.05-12-.52-23.66-3.19-34.91-7.37-13.7-5.09-27.99-6.8-42.42-7.79-.83-.06-1.67,0-2.5-.07-12.23-1.01-17.21-7.36-13.98-19.15,4.18-15.21,9.02-30.25,13.75-45.3,1.6-5.08,3.39-11.02,9.25-12.01,5.88-1,9.8,3.63,13.36,7.98,13.6,16.58,31.09,20.15,53.17,15,.65-.15,1.37-.25,1.89-.62,2.63-1.88,6.4-2.95,6.57-6.89,.17-4.1-3.65-4.74-6.37-6.07-6.54-3.18-13.55-5.42-19.57-9.63-22.98-16.09-27.72-45.83-11.18-70.24,13.75-20.29,32.99-31.89,56.81-37,13.26-2.85,26.23-7.08,39.32-10.73,5.43-1.52,10.79-3.3,16.25-4.69,6.61-1.69,10.54,1.34,10.7,8.52,.23,10.15,.06,20.31,.06,30.47h.37Z"/>
  <path class="cls-1" d="M141.88,371.05c24.76,1.7,49.48,8.23,68.48,28.96,6.5,7.1,6.4,12.93-.68,19.19-5.98,5.29-11.46,11.16-17.7,16.12-10.04,7.98-17.48,7.52-27.2-.95-4.02-3.5-7.77-7.27-12.88-9.28-4.63-1.82-8.43-.73-11.78,2.71-8.54,8.76-7.2,17.69,3.46,23.27,8.4,4.4,16.51,9.3,24.14,14.95,12.92,9.55,19.12,23.05,22.44,38.26,6.19,28.32-8.38,58.3-34.51,70.71-11.16,5.3-23.03,6.6-35.06,4.62-33.82-5.58-59.39-23.72-78.2-52.03-4.73-7.12-5.74-14.24-2.13-22.14,3.68-8.06,7.69-15.94,13.34-22.75,5.55-6.68,9.2-6.65,14.09,.55,10.82,15.94,27.74,23.43,43.67,32.24,3.13,1.73,7.59,1.61,10.78-1.41,2.82-2.67,3.42-9.31,1.25-13.67-3.54-7.11-9.19-12.61-14.37-18.44-7.18-8.09-14.45-16.11-21.96-23.89-23.96-24.79-15.46-65.36,17.29-80.09,11.31-5.08,23.28-6.55,37.52-6.91Z"/>
  <path class="cls-1" d="M210.15,122.79c17.84,.09,35.48,2.65,53.16,4.56,26.3,2.85,52.48,4.04,78.07-4.71,2.06-.7,2.99-.48,3.37,1.88,2.46,15.46,4.3,30.98,4,46.67-.09,4.82-2.56,8.09-7.34,9.54-8.47,2.56-17.17,3.9-25.88,5.15-5.93,.85-11.79,2.02-17.61,3.43-5.23,1.27-7.89,4.49-8.94,9.51-4.45,21.33-9.17,42.61-13.35,63.99-5.85,29.9-9.89,60.06-11.61,90.5-.21,3.65-.39,7.31-.45,10.97-.1,6.89-1.64,8.14-8.17,5.62-14.27-5.5-28.45-11.25-42.69-16.84-5.42-2.13-10.93-4.02-16.36-6.12-7.63-2.95-8.96-5.59-6.87-13.36,5.66-21.05,11.35-42.09,17-63.14,6.73-25.07,13.45-50.14,20.15-75.22,1.17-4.37,.08-5.71-4.6-4.97-5.1,.81-10.17,1.65-15.36,1.62-8.02-.05-10.58-2.58-11.24-10.64-1.02-12.31,.29-24.62-.03-36.93-.14-5.49,.18-11-.09-16.49-.19-3.75,.71-5.55,4.88-5.11,3.29,.35,6.66,.07,9.99,.07Z"/>
</svg>